# Blender v2.92.0 OBJ File: 'untitled.blend'
# www.blender.org
mtllib Field2.mtl
o 平面_平面.002
v -3.001589 0.000000 3.001589
v 3.001589 0.000000 3.001589
v -3.001589 0.000000 -3.001589
v 3.001589 0.000000 -3.001589
v -2.607836 -0.087154 -1.004412
v -2.607836 0.312846 -1.004412
v -3.007836 -0.087154 -1.004412
v -3.007836 0.312846 -1.004412
v -2.607836 -0.087154 -3.004412
v -2.607836 0.312846 -3.004412
v -3.007837 -0.087154 -3.004412
v -3.007837 0.312846 -3.004412
v -0.528517 -0.087154 -1.004412
v -0.528517 0.312846 -1.004412
v -0.928517 -0.087154 -1.004412
v -0.928517 0.312846 -1.004412
v -0.528518 -0.087154 -3.004412
v -0.528518 0.312846 -3.004412
v -0.928518 -0.087154 -3.004412
v -0.928518 0.312846 -3.004412
v 0.973968 -0.087154 3.015424
v 0.973968 0.312846 3.015424
v 0.573968 -0.087154 3.015424
v 0.573968 0.312846 3.015424
v 0.973968 -0.087154 1.015424
v 0.973968 0.312846 1.015424
v 0.573968 -0.087154 1.015424
v 0.573968 0.312846 1.015424
v 3.053287 -0.087154 3.015424
v 3.053287 0.312846 3.015424
v 2.653287 -0.087154 3.015424
v 2.653287 0.312846 3.015424
v 3.053287 -0.087154 1.015424
v 3.053287 0.312846 1.015424
v 2.653287 -0.087154 1.015424
v 2.653287 0.312846 1.015424
v 3.053287 -0.087154 1.030402
v 3.053287 0.312846 1.030402
v 2.653287 -0.087154 1.030402
v 2.653287 0.312846 1.030402
v 3.053287 -0.087154 -0.969598
v 3.053287 0.312846 -0.969598
v 2.653287 -0.087154 -0.969598
v 2.653287 0.312846 -0.969598
v -2.605031 -0.087154 0.997042
v -2.605031 0.312846 0.997042
v -3.005031 -0.087154 0.997042
v -3.005031 0.312846 0.997042
v -2.605031 -0.087154 -1.002958
v -2.605031 0.312846 -1.002958
v -3.005032 -0.087154 -1.002958
v -3.005032 0.312846 -1.002958
v -1.421366 -0.087154 1.430541
v -1.421366 0.312846 1.430541
v -1.421366 -0.087154 1.030541
v -1.421366 0.312846 1.030541
v 0.578634 -0.087154 1.430541
v 0.578634 0.312846 1.430541
v 0.578634 -0.087154 1.030541
v 0.578634 0.312846 1.030541
v -0.520121 -0.087154 -0.986014
v -0.520121 0.312846 -0.986014
v -0.520121 -0.087154 -1.386014
v -0.520121 0.312846 -1.386014
v 1.479879 -0.087154 -0.986014
v 1.479879 0.312846 -0.986014
v 1.479879 -0.087154 -1.386014
v 1.479879 0.312846 -1.386014
v -2.974019 -0.087154 1.430541
v -2.974019 0.312846 1.430541
v -2.974019 -0.087154 1.030541
v -2.974019 0.312846 1.030541
v -1.417876 -0.087154 1.430541
v -1.417876 0.312846 1.430541
v -1.417876 -0.087154 1.030541
v -1.417876 0.312846 1.030541
v 1.461800 -0.087154 -0.983845
v 1.461800 0.312846 -0.983845
v 1.461800 -0.087154 -1.383845
v 1.461800 0.312846 -1.383845
v 3.017944 -0.087154 -0.983845
v 3.017944 0.312846 -0.983845
v 3.017944 -0.087154 -1.383845
v 3.017944 0.312846 -1.383845
v -1.728345 -0.003612 -1.934887
v -1.728345 0.016388 -1.934887
v -1.748345 -0.003612 -1.934887
v -1.748345 0.016388 -1.934887
v -1.728345 -0.003612 -2.734887
v -1.728345 0.016388 -2.734887
v -1.748345 -0.003612 -2.734887
v -1.748345 0.016388 -2.734887
v -1.728345 -0.003612 -0.824752
v -1.728345 0.016388 -0.824752
v -1.748345 -0.003612 -0.824752
v -1.748345 0.016388 -0.824752
v -1.728345 -0.003612 -1.624752
v -1.728345 0.016388 -1.624752
v -1.748345 -0.003612 -1.624752
v -1.748345 0.016388 -1.624752
v -1.728345 -0.003612 0.171689
v -1.728345 0.016388 0.171689
v -1.748345 -0.003612 0.171689
v -1.748345 0.016388 0.171689
v -1.728345 -0.003612 -0.628311
v -1.728345 0.016388 -0.628311
v -1.748345 -0.003612 -0.628311
v -1.748345 0.016388 -0.628311
v 1.932093 -0.003612 0.979526
v 1.932093 0.016388 0.979526
v 1.912093 -0.003612 0.979526
v 1.912093 0.016388 0.979526
v 1.932093 -0.003612 0.179526
v 1.932093 0.016388 0.179526
v 1.912093 -0.003612 0.179526
v 1.912093 0.016388 0.179526
v 1.932093 -0.003612 1.938188
v 1.932093 0.016388 1.938188
v 1.912093 -0.003612 1.938188
v 1.912093 0.016388 1.938188
v 1.932093 -0.003612 1.138188
v 1.932093 0.016388 1.138188
v 1.912093 -0.003612 1.138188
v 1.912093 0.016388 1.138188
v 1.932093 -0.003612 2.891241
v 1.932093 0.016388 2.891241
v 1.912093 -0.003612 2.891241
v 1.912093 0.016388 2.891241
v 1.932093 -0.003612 2.091241
v 1.932093 0.016388 2.091241
v 1.912093 -0.003612 2.091241
v 1.912093 0.016388 2.091241
v 0.974039 -0.003612 0.099196
v 0.974039 0.016388 0.099196
v 0.974039 -0.003612 0.079196
v 0.974039 0.016388 0.079196
v 1.774039 -0.003612 0.099196
v 1.774039 0.016388 0.099196
v 1.774039 -0.003612 0.079196
v 1.774039 0.016388 0.079196
v -0.201318 -0.003612 0.109316
v -0.201318 0.016388 0.109316
v -0.201318 -0.003612 0.089316
v -0.201318 0.016388 0.089316
v 0.598682 -0.003612 0.109316
v 0.598682 0.016388 0.109316
v 0.598682 -0.003612 0.089316
v 0.598682 0.016388 0.089316
v -1.548993 -0.003612 0.099235
v -1.548993 0.016388 0.099235
v -1.548993 -0.003612 0.079235
v -1.548993 0.016388 0.079235
v -0.748993 -0.003612 0.099235
v -0.748993 0.016388 0.099235
v -0.748993 -0.003612 0.079235
v -0.748993 0.016388 0.079235
vt 0.557918 0.557918
vt 0.000000 0.557918
vt 0.000000 0.000000
vt 0.557918 0.000000
vt 0.148699 0.888416
vt 0.148699 1.000000
vt 0.111525 1.000000
vt 0.111525 0.888416
vt 0.775931 0.371749
vt 0.664347 0.371749
vt 0.664347 0.185874
vt 0.775931 0.185874
vt 0.966960 0.557623
vt 0.966960 0.669207
vt 0.929785 0.669207
vt 0.929785 0.557623
vt 0.334751 0.854528
vt 0.223167 0.854528
vt 0.223167 0.668654
vt 0.334751 0.668654
vt 0.520684 0.743793
vt 0.520684 0.929667
vt 0.483510 0.929667
vt 0.483510 0.743793
vt 0.855436 0.557623
vt 0.855436 0.743497
vt 0.818261 0.743497
vt 0.818261 0.557623
vt 0.967019 0.111584
vt 0.967019 0.223167
vt 0.929844 0.223167
vt 0.929844 0.111584
vt 0.111584 0.641585
vt 0.223167 0.641585
vt 0.223167 0.827459
vt 0.111584 0.827459
vt 0.966960 0.780790
vt 0.966960 0.892374
vt 0.929785 0.892374
vt 0.929785 0.780790
vt 0.781086 0.185874
vt 0.669502 0.185874
vt 0.669502 0.000000
vt 0.781086 0.000000
vt 0.334751 0.929667
vt 0.334751 0.743793
vt 0.371926 0.743793
vt 0.371926 0.929667
vt 0.855436 0.743497
vt 0.855436 0.929372
vt 0.818261 0.929372
vt 0.818261 0.743497
vt 0.037175 0.888416
vt 0.037175 1.000000
vt 0.000000 1.000000
vt 0.000000 0.888416
vt 0.781086 0.000000
vt 0.892669 0.000000
vt 0.892669 0.185874
vt 0.781086 0.185874
vt 0.743852 0.888121
vt 0.743852 0.999705
vt 0.706677 0.999705
vt 0.706677 0.888121
vt 0.000000 0.619438
vt 0.111584 0.619438
vt 0.111584 0.805312
vt 0.000000 0.805312
vt 0.223226 0.929667
vt 0.223226 0.743793
vt 0.260401 0.743793
vt 0.260401 0.929667
vt 0.483510 0.743793
vt 0.483510 0.929667
vt 0.446335 0.929667
vt 0.446335 0.743793
vt 0.929785 0.888121
vt 0.929785 0.999705
vt 0.892611 0.999705
vt 0.892611 0.888121
vt 0.892670 0.557623
vt 0.781086 0.557623
vt 0.781086 0.371749
vt 0.892670 0.371749
vt 0.074350 0.888416
vt 0.074350 1.000000
vt 0.037175 1.000000
vt 0.037175 0.888416
vt 0.669502 0.807478
vt 0.557918 0.807478
vt 0.557918 0.621603
vt 0.669502 0.621603
vt 0.781086 0.929372
vt 0.781086 0.743497
vt 0.818261 0.743497
vt 0.818261 0.929372
vt 0.892610 0.557623
vt 0.892610 0.743497
vt 0.855436 0.743497
vt 0.855436 0.557623
vt 0.781027 0.888121
vt 0.781027 0.999705
vt 0.743852 0.999705
vt 0.743852 0.888121
vt 0.584987 0.371749
vt 0.696571 0.371749
vt 0.696571 0.557623
vt 0.584987 0.557623
vt 0.111525 0.888416
vt 0.111525 1.000000
vt 0.074350 1.000000
vt 0.074350 0.888416
vt 0.669502 0.557623
vt 0.781086 0.557623
vt 0.781086 0.743497
vt 0.669502 0.743497
vt 0.855436 0.929372
vt 0.855436 0.743497
vt 0.892611 0.743497
vt 0.892611 0.929372
vt 0.929785 0.557623
vt 0.929785 0.743497
vt 0.892611 0.743497
vt 0.892611 0.557623
vt 0.185874 0.888416
vt 0.185874 1.000000
vt 0.148700 1.000000
vt 0.148700 0.888416
vt 0.669502 0.185874
vt 0.781086 0.185874
vt 0.781086 0.371749
vt 0.669502 0.371749
vt 0.929844 0.433871
vt 0.929844 0.545454
vt 0.892670 0.545454
vt 0.892670 0.433871
vt 0.334751 0.607134
vt 0.446335 0.607134
vt 0.446335 0.793008
vt 0.334751 0.793008
vt 0.557859 0.743793
vt 0.557859 0.929667
vt 0.520684 0.929667
vt 0.520685 0.743793
vt 0.818261 0.557623
vt 0.818261 0.743497
vt 0.781086 0.743497
vt 0.781086 0.557623
vt 0.706677 0.888121
vt 0.706677 0.999705
vt 0.669502 0.999705
vt 0.669502 0.888121
vt 0.446335 0.624360
vt 0.557918 0.624360
vt 0.557918 0.810234
vt 0.446335 0.810234
vt 0.967019 0.000000
vt 0.967019 0.111584
vt 0.929844 0.111584
vt 0.929844 0.000000
vt 0.669502 0.371749
vt 0.781086 0.371749
vt 0.781086 0.557623
vt 0.669502 0.557623
vt 0.409101 0.929667
vt 0.409101 0.743793
vt 0.446276 0.743793
vt 0.446276 0.929667
vt 0.371926 0.929667
vt 0.371926 0.743793
vt 0.409101 0.743793
vt 0.409101 0.929667
vt 0.967019 0.223167
vt 0.967019 0.334751
vt 0.929844 0.334751
vt 0.929844 0.223167
vt 0.781086 0.185874
vt 0.892670 0.185874
vt 0.892669 0.371749
vt 0.781086 0.371749
vt 0.595093 0.888121
vt 0.595093 0.999705
vt 0.557918 0.999705
vt 0.557918 0.888121
vt 0.620053 0.000000
vt 0.731637 0.000000
vt 0.731637 0.185874
vt 0.620053 0.185874
vt 0.297576 0.929667
vt 0.297576 0.743793
vt 0.334751 0.743793
vt 0.334751 0.929667
vt 0.260401 0.929667
vt 0.260401 0.743793
vt 0.297576 0.743793
vt 0.297576 0.929667
vt 0.632268 0.888121
vt 0.632268 0.999705
vt 0.595093 0.999705
vt 0.595093 0.888121
vt 0.781086 0.888121
vt 0.669502 0.888121
vt 0.669502 0.743497
vt 0.781086 0.743497
vt 0.967019 0.334751
vt 0.967019 0.446335
vt 0.929844 0.446335
vt 0.929844 0.334751
vt 0.669502 0.888121
vt 0.557918 0.888121
vt 0.557918 0.743497
vt 0.669502 0.743497
vt 0.929844 0.000000
vt 0.929844 0.144624
vt 0.892670 0.144624
vt 0.892670 0.000000
vt 0.929785 0.743497
vt 0.929785 0.888121
vt 0.892611 0.888121
vt 0.892611 0.743497
vt 0.966960 0.669207
vt 0.966960 0.780790
vt 0.929785 0.780790
vt 0.929785 0.669207
vt 0.111584 0.888416
vt 0.000000 0.888416
vt 0.000000 0.743793
vt 0.111584 0.743793
vt 0.669443 0.888121
vt 0.669443 0.999705
vt 0.632268 0.999705
vt 0.632268 0.888121
vt 0.223167 0.888416
vt 0.111584 0.888416
vt 0.111584 0.743793
vt 0.223167 0.743793
vt 0.929844 0.289247
vt 0.929844 0.433871
vt 0.892670 0.433871
vt 0.892670 0.289247
vt 0.929844 0.144624
vt 0.929844 0.289247
vt 0.892670 0.289247
vt 0.892670 0.144624
vt 0.896387 0.545454
vt 0.896387 0.551034
vt 0.894528 0.551034
vt 0.894528 0.545454
vt 0.941003 0.520685
vt 0.935424 0.520685
vt 0.935424 0.446335
vt 0.941003 0.446335
vt 0.901963 0.545454
vt 0.901963 0.551034
vt 0.900104 0.551034
vt 0.900104 0.545454
vt 0.952161 0.520684
vt 0.946582 0.520684
vt 0.946582 0.446335
vt 0.952161 0.446335
vt 0.963260 0.966724
vt 0.963260 0.892374
vt 0.965119 0.892374
vt 0.965119 0.966724
vt 0.965178 0.446335
vt 0.965178 0.520685
vt 0.963320 0.520685
vt 0.963320 0.446335
vt 0.901963 0.551034
vt 0.901963 0.556613
vt 0.900105 0.556613
vt 0.900105 0.551034
vt 0.213770 0.962766
vt 0.208191 0.962766
vt 0.208191 0.888416
vt 0.213770 0.888416
vt 0.900105 0.551034
vt 0.900105 0.556613
vt 0.898246 0.556613
vt 0.898246 0.551034
vt 0.208191 0.962766
vt 0.202612 0.962766
vt 0.202612 0.888416
vt 0.208191 0.888416
vt 0.965119 0.966724
vt 0.965119 0.892374
vt 0.966978 0.892374
vt 0.966978 0.966724
vt 0.967037 0.446335
vt 0.967037 0.520684
vt 0.965178 0.520684
vt 0.965178 0.446335
vt 0.903822 0.551034
vt 0.903822 0.556613
vt 0.901963 0.556613
vt 0.901963 0.551034
vt 0.940944 0.966724
vt 0.935365 0.966724
vt 0.935365 0.892374
vt 0.940944 0.892374
vt 0.894528 0.552044
vt 0.894528 0.557623
vt 0.892670 0.557623
vt 0.892670 0.552044
vt 0.963319 0.520684
vt 0.957740 0.520684
vt 0.957740 0.446335
vt 0.963319 0.446335
vt 0.966960 0.780672
vt 0.966960 0.706323
vt 0.968819 0.706323
vt 0.968819 0.780672
vt 0.968819 0.780790
vt 0.968819 0.855140
vt 0.966960 0.855140
vt 0.966960 0.780790
vt 0.894528 0.545454
vt 0.894528 0.551034
vt 0.892670 0.551034
vt 0.892670 0.545454
vt 0.202612 0.962766
vt 0.197033 0.962766
vt 0.197033 0.888416
vt 0.202612 0.888416
vt 0.896387 0.552044
vt 0.896387 0.557623
vt 0.894528 0.557623
vt 0.894528 0.552044
vt 0.197033 0.962766
vt 0.191453 0.962766
vt 0.191453 0.888416
vt 0.197033 0.888416
vt 0.966978 0.966724
vt 0.966978 0.892374
vt 0.968837 0.892374
vt 0.968837 0.966724
vt 0.968878 0.000000
vt 0.968878 0.074350
vt 0.967019 0.074350
vt 0.967019 0.000000
vt 0.898246 0.545454
vt 0.898246 0.551034
vt 0.896387 0.551034
vt 0.896387 0.545454
vt 0.935424 0.520684
vt 0.929844 0.520684
vt 0.929844 0.446335
vt 0.935424 0.446335
vt 0.903822 0.545454
vt 0.903822 0.551034
vt 0.901963 0.551034
vt 0.901963 0.545454
vt 0.957740 0.520684
vt 0.952161 0.520684
vt 0.952161 0.446335
vt 0.957740 0.446335
vt 0.966960 0.631973
vt 0.966960 0.557623
vt 0.968819 0.557623
vt 0.968819 0.631973
vt 0.968819 0.631973
vt 0.968819 0.706323
vt 0.966960 0.706323
vt 0.966960 0.631973
vt 0.900105 0.545454
vt 0.900105 0.551034
vt 0.898246 0.551034
vt 0.898246 0.545454
vt 0.946582 0.520684
vt 0.941003 0.520684
vt 0.941003 0.446335
vt 0.946582 0.446335
vt 0.898246 0.552044
vt 0.898246 0.557623
vt 0.896387 0.557623
vt 0.896387 0.552044
vt 0.191453 0.962766
vt 0.185874 0.962766
vt 0.185874 0.888416
vt 0.191454 0.888416
vt 0.221208 0.962766
vt 0.221208 0.888416
vt 0.223067 0.888416
vt 0.223067 0.962766
vt 0.221208 0.888416
vt 0.221208 0.962766
vt 0.219349 0.962766
vt 0.219349 0.888416
vt 0.905681 0.545454
vt 0.905681 0.551034
vt 0.903822 0.551034
vt 0.903822 0.545454
vt 0.946523 0.966724
vt 0.940944 0.966724
vt 0.940944 0.892374
vt 0.946523 0.892374
vt 0.909398 0.545454
vt 0.909398 0.551034
vt 0.907539 0.551034
vt 0.907539 0.545454
vt 0.935365 0.966724
vt 0.929785 0.966724
vt 0.929785 0.892374
vt 0.935365 0.892374
vt 0.968878 0.223167
vt 0.968878 0.297517
vt 0.967019 0.297517
vt 0.967019 0.223167
vt 0.968878 0.371867
vt 0.968878 0.446217
vt 0.967019 0.446217
vt 0.967019 0.371867
vt 0.907539 0.551034
vt 0.907539 0.556613
vt 0.905681 0.556613
vt 0.905681 0.551034
vt 0.952102 0.966724
vt 0.946523 0.966724
vt 0.946523 0.892374
vt 0.952102 0.892374
vt 0.909398 0.551034
vt 0.909398 0.556613
vt 0.907539 0.556613
vt 0.907539 0.551034
vt 0.219349 0.962766
vt 0.213770 0.962766
vt 0.213770 0.888416
vt 0.219349 0.888416
vt 0.968878 0.148699
vt 0.968878 0.223049
vt 0.967019 0.223049
vt 0.967019 0.148699
vt 0.968896 0.446335
vt 0.968896 0.520684
vt 0.967037 0.520684
vt 0.967037 0.446335
vt 0.905681 0.551034
vt 0.905681 0.556613
vt 0.903822 0.556613
vt 0.903822 0.551034
vt 0.957681 0.966724
vt 0.952102 0.966724
vt 0.952102 0.892374
vt 0.957681 0.892374
vt 0.907539 0.545454
vt 0.907539 0.551034
vt 0.905681 0.551034
vt 0.905681 0.545454
vt 0.963260 0.966724
vt 0.957681 0.966724
vt 0.957681 0.892374
vt 0.963260 0.892374
vt 0.968878 0.297517
vt 0.968878 0.371867
vt 0.967019 0.371867
vt 0.967019 0.297517
vt 0.968878 0.074350
vt 0.968878 0.148699
vt 0.967019 0.148699
vt 0.967019 0.074350
vn 0.0000 1.0000 0.0000
vn 0.0000 0.0000 1.0000
vn -1.0000 0.0000 0.0000
vn 0.0000 0.0000 -1.0000
vn 1.0000 0.0000 0.0000
vn 0.0000 -1.0000 0.0000
usemtl マテリアル.002
s off
f 1/1/1 2/2/1 4/3/1 3/4/1
f 5/5/2 6/6/2 8/7/2 7/8/2
f 7/9/3 8/10/3 12/11/3 11/12/3
f 11/13/4 12/14/4 10/15/4 9/16/4
f 9/17/5 10/18/5 6/19/5 5/20/5
f 7/21/6 11/22/6 9/23/6 5/24/6
f 12/25/1 8/26/1 6/27/1 10/28/1
f 13/29/2 14/30/2 16/31/2 15/32/2
f 15/33/3 16/34/3 20/35/3 19/36/3
f 19/37/4 20/38/4 18/39/4 17/40/4
f 17/41/5 18/42/5 14/43/5 13/44/5
f 15/45/6 19/46/6 17/47/6 13/48/6
f 20/49/1 16/50/1 14/51/1 18/52/1
f 21/53/2 22/54/2 24/55/2 23/56/2
f 23/57/3 24/58/3 28/59/3 27/60/3
f 27/61/4 28/62/4 26/63/4 25/64/4
f 25/65/5 26/66/5 22/67/5 21/68/5
f 23/69/6 27/70/6 25/71/6 21/72/6
f 28/73/1 24/74/1 22/75/1 26/76/1
f 29/77/2 30/78/2 32/79/2 31/80/2
f 31/81/3 32/82/3 36/83/3 35/84/3
f 35/85/4 36/86/4 34/87/4 33/88/4
f 33/89/5 34/90/5 30/91/5 29/92/5
f 31/93/6 35/94/6 33/95/6 29/96/6
f 36/97/1 32/98/1 30/99/1 34/100/1
f 37/101/2 38/102/2 40/103/2 39/104/2
f 39/105/3 40/106/3 44/107/3 43/108/3
f 43/109/4 44/110/4 42/111/4 41/112/4
f 41/113/5 42/114/5 38/115/5 37/116/5
f 39/117/6 43/118/6 41/119/6 37/120/6
f 44/121/1 40/122/1 38/123/1 42/124/1
f 45/125/2 46/126/2 48/127/2 47/128/2
f 47/129/3 48/130/3 52/131/3 51/132/3
f 51/133/4 52/134/4 50/135/4 49/136/4
f 49/137/5 50/138/5 46/139/5 45/140/5
f 47/141/6 51/142/6 49/143/6 45/144/6
f 52/145/1 48/146/1 46/147/1 50/148/1
f 53/149/3 54/150/3 56/151/3 55/152/3
f 55/153/4 56/154/4 60/155/4 59/156/4
f 59/157/5 60/158/5 58/159/5 57/160/5
f 57/161/2 58/162/2 54/163/2 53/164/2
f 55/165/6 59/166/6 57/167/6 53/168/6
f 60/169/1 56/170/1 54/171/1 58/172/1
f 61/173/3 62/174/3 64/175/3 63/176/3
f 63/177/4 64/178/4 68/179/4 67/180/4
f 67/181/5 68/182/5 66/183/5 65/184/5
f 65/185/2 66/186/2 62/187/2 61/188/2
f 63/189/6 67/190/6 65/191/6 61/192/6
f 68/193/1 64/194/1 62/195/1 66/196/1
f 69/197/3 70/198/3 72/199/3 71/200/3
f 71/201/4 72/202/4 76/203/4 75/204/4
f 75/205/5 76/206/5 74/207/5 73/208/5
f 73/209/2 74/210/2 70/211/2 69/212/2
f 71/213/6 75/214/6 73/215/6 69/216/6
f 76/217/1 72/218/1 70/219/1 74/220/1
f 77/221/3 78/222/3 80/223/3 79/224/3
f 79/225/4 80/226/4 84/227/4 83/228/4
f 83/229/5 84/230/5 82/231/5 81/232/5
f 81/233/2 82/234/2 78/235/2 77/236/2
f 79/237/6 83/238/6 81/239/6 77/240/6
f 84/241/1 80/242/1 78/243/1 82/244/1
f 85/245/2 86/246/2 88/247/2 87/248/2
f 87/249/3 88/250/3 92/251/3 91/252/3
f 91/253/4 92/254/4 90/255/4 89/256/4
f 89/257/5 90/258/5 86/259/5 85/260/5
f 87/261/6 91/262/6 89/263/6 85/264/6
f 92/265/1 88/266/1 86/267/1 90/268/1
f 93/269/2 94/270/2 96/271/2 95/272/2
f 95/273/3 96/274/3 100/275/3 99/276/3
f 99/277/4 100/278/4 98/279/4 97/280/4
f 97/281/5 98/282/5 94/283/5 93/284/5
f 95/285/6 99/286/6 97/287/6 93/288/6
f 100/289/1 96/290/1 94/291/1 98/292/1
f 101/293/2 102/294/2 104/295/2 103/296/2
f 103/297/3 104/298/3 108/299/3 107/300/3
f 107/301/4 108/302/4 106/303/4 105/304/4
f 105/305/5 106/306/5 102/307/5 101/308/5
f 103/309/6 107/310/6 105/311/6 101/312/6
f 108/313/1 104/314/1 102/315/1 106/316/1
f 109/317/2 110/318/2 112/319/2 111/320/2
f 111/321/3 112/322/3 116/323/3 115/324/3
f 115/325/4 116/326/4 114/327/4 113/328/4
f 113/329/5 114/330/5 110/331/5 109/332/5
f 111/333/6 115/334/6 113/335/6 109/336/6
f 116/337/1 112/338/1 110/339/1 114/340/1
f 117/341/2 118/342/2 120/343/2 119/344/2
f 119/345/3 120/346/3 124/347/3 123/348/3
f 123/349/4 124/350/4 122/351/4 121/352/4
f 121/353/5 122/354/5 118/355/5 117/356/5
f 119/357/6 123/358/6 121/359/6 117/360/6
f 124/361/1 120/362/1 118/363/1 122/364/1
f 125/365/2 126/366/2 128/367/2 127/368/2
f 127/369/3 128/370/3 132/371/3 131/372/3
f 131/373/4 132/374/4 130/375/4 129/376/4
f 129/377/5 130/378/5 126/379/5 125/380/5
f 127/381/6 131/382/6 129/383/6 125/384/6
f 132/385/1 128/386/1 126/387/1 130/388/1
f 133/389/3 134/390/3 136/391/3 135/392/3
f 135/393/4 136/394/4 140/395/4 139/396/4
f 139/397/5 140/398/5 138/399/5 137/400/5
f 137/401/2 138/402/2 134/403/2 133/404/2
f 135/405/6 139/406/6 137/407/6 133/408/6
f 140/409/1 136/410/1 134/411/1 138/412/1
f 141/413/3 142/414/3 144/415/3 143/416/3
f 143/417/4 144/418/4 148/419/4 147/420/4
f 147/421/5 148/422/5 146/423/5 145/424/5
f 145/425/2 146/426/2 142/427/2 141/428/2
f 143/429/6 147/430/6 145/431/6 141/432/6
f 148/433/1 144/434/1 142/435/1 146/436/1
f 149/437/3 150/438/3 152/439/3 151/440/3
f 151/441/4 152/442/4 156/443/4 155/444/4
f 155/445/5 156/446/5 154/447/5 153/448/5
f 153/449/2 154/450/2 150/451/2 149/452/2
f 151/453/6 155/454/6 153/455/6 149/456/6
f 156/457/1 152/458/1 150/459/1 154/460/1
