# Blender v2.92.0 OBJ File: 'Field.blend'
# www.blender.org
mtllib Field.mtl
o 平面_平面.002
v -1.000000 -0.034674 1.000000
v 1.000000 -0.034674 1.000000
v -1.000000 -0.034674 -1.000000
v 1.000000 -0.034674 -1.000000
v -0.200000 -0.034674 -0.200000
v 0.200000 -0.034674 -0.200000
v -0.200000 -0.034674 -0.034674
v -0.200000 -0.034674 0.200000
v 0.200000 -0.034674 -0.200000
v 0.200000 -0.034674 0.200000
v 1.000000 -0.199981 0.995623
v 1.000000 0.200019 0.995623
v 1.000000 -0.199981 -1.004377
v 1.000000 0.200019 -1.004377
v 1.400000 -0.199981 0.995623
v 1.400000 0.200019 0.995623
v 1.400000 -0.199981 -1.004377
v 1.400000 0.200019 -1.004377
v -1.400000 -0.199981 0.995623
v -1.400000 0.200019 0.995623
v -1.400000 -0.199981 -1.004377
v -1.400000 0.200019 -1.004377
v -1.000000 -0.199981 0.995623
v -1.000000 0.200019 0.995623
v -1.000000 -0.199981 -1.004377
v -1.000000 0.200019 -1.004377
v 1.000000 -0.199981 -1.000000
v 1.000000 0.200019 -1.000000
v -1.000000 -0.199981 -1.000000
v -1.000000 0.200019 -1.000000
v 1.000000 -0.199981 -1.400000
v 1.000000 0.200019 -1.400000
v -1.000000 -0.199981 -1.400000
v -1.000000 0.200019 -1.400000
v 1.000000 -0.199981 1.400000
v 1.000000 0.200019 1.400000
v -1.000000 -0.199981 1.400000
v -1.000000 0.200019 1.400000
v 1.000000 -0.199981 1.000000
v 1.000000 0.200019 1.000000
v -1.000000 -0.199981 1.000000
v -1.000000 0.200019 1.000000
vt 0.454545 0.000000
vt 0.272727 0.181818
vt 0.181818 0.181818
vt 0.000000 0.000000
vt 0.000000 0.454545
vt 0.181818 0.272727
vt 0.454545 0.454545
vt 0.272727 0.272727
vt 0.818182 0.909091
vt 0.727273 0.909091
vt 0.727273 0.454545
vt 0.818182 0.454545
vt 0.363636 1.000000
vt 0.272727 1.000000
vt 0.272727 0.909091
vt 0.363636 0.909091
vt 0.636364 1.000000
vt 0.545455 1.000000
vt 0.545455 0.545454
vt 0.636364 0.545454
vt 0.181818 1.000000
vt 0.090909 1.000000
vt 0.090909 0.909091
vt 0.181818 0.909091
vt 0.000000 0.454545
vt 0.090909 0.454545
vt 0.090909 0.909091
vt 0.000000 0.909091
vt 0.090909 0.454545
vt 0.181818 0.454545
vt 0.181818 0.909091
vt 0.090909 0.909091
vt 0.545455 1.000000
vt 0.454545 1.000000
vt 0.454545 0.545454
vt 0.545455 0.545454
vt 0.090909 1.000000
vt 0.000000 1.000000
vt 0.000000 0.909091
vt 0.090909 0.909091
vt 0.909091 0.909091
vt 0.818182 0.909091
vt 0.818182 0.454545
vt 0.909091 0.454545
vt 0.272727 1.000000
vt 0.181818 1.000000
vt 0.181818 0.909091
vt 0.272727 0.909091
vt 0.727273 0.000000
vt 0.818182 0.000000
vt 0.818182 0.454545
vt 0.727273 0.454545
vt 0.636364 0.000000
vt 0.727273 0.000000
vt 0.727273 0.454545
vt 0.636364 0.454545
vt 0.545455 0.545454
vt 0.454545 0.545454
vt 0.454545 0.090909
vt 0.545455 0.090909
vt 0.454545 0.000000
vt 0.545455 0.000000
vt 1.000000 0.454545
vt 0.909091 0.454545
vt 0.909091 0.000000
vt 1.000000 0.000000
vt 0.454545 0.909091
vt 0.454545 1.000000
vt 0.363636 1.000000
vt 0.363636 0.909091
vt 0.727273 0.909091
vt 0.636364 0.909091
vt 0.636364 0.454545
vt 0.727273 0.454545
vt 0.363636 0.909091
vt 0.272727 0.909091
vt 0.272727 0.454545
vt 0.363636 0.454545
vt 1.000000 0.909091
vt 0.909091 0.909091
vt 0.909091 0.454545
vt 1.000000 0.454545
vt 0.727273 0.909091
vt 0.727273 1.000000
vt 0.636364 1.000000
vt 0.636364 0.909091
vt 0.636364 0.545454
vt 0.545455 0.545454
vt 0.545455 0.090909
vt 0.636364 0.090909
vt 0.545455 0.000000
vt 0.636364 0.000000
vt 0.272727 0.909091
vt 0.181818 0.909091
vt 0.181818 0.454545
vt 0.272727 0.454545
vt 0.909091 0.454545
vt 0.818182 0.454545
vt 0.818182 0.000000
vt 0.909091 0.000000
vn 0.0000 1.0000 -0.0000
vn -1.0000 0.0000 0.0000
vn 0.0000 0.0000 -1.0000
vn 1.0000 0.0000 0.0000
vn 0.0000 0.0000 1.0000
vn 0.0000 -1.0000 0.0000
usemtl マテリアル.001
s off
f 3/1/1 5/2/1 9/3/1 4/4/1
f 2/5/1 4/4/1 9/3/1 10/6/1
f 5/2/1 3/1/1 1/7/1 8/8/1
f 8/8/1 1/7/1 2/5/1 10/6/1
f 11/9/2 12/10/2 14/11/2 13/12/2
f 13/13/3 14/14/3 18/15/3 17/16/3
f 17/17/4 18/18/4 16/19/4 15/20/4
f 15/21/5 16/22/5 12/23/5 11/24/5
f 13/25/6 17/26/6 15/27/6 11/28/6
f 18/29/1 14/30/1 12/31/1 16/32/1
f 19/33/2 20/34/2 22/35/2 21/36/2
f 21/37/3 22/38/3 26/39/3 25/40/3
f 25/41/4 26/42/4 24/43/4 23/44/4
f 23/45/5 24/46/5 20/47/5 19/48/5
f 21/49/6 25/50/6 23/51/6 19/52/6
f 26/53/1 22/54/1 20/55/1 24/56/1
f 27/57/5 28/58/5 30/59/5 29/60/5
f 29/60/2 30/59/2 34/61/2 33/62/2
f 33/63/3 34/64/3 32/65/3 31/66/3
f 31/67/4 32/68/4 28/69/4 27/70/4
f 29/71/6 33/72/6 31/73/6 27/74/6
f 34/75/1 30/76/1 28/77/1 32/78/1
f 35/79/5 36/80/5 38/81/5 37/82/5
f 37/83/2 38/84/2 42/85/2 41/86/2
f 41/87/3 42/88/3 40/89/3 39/90/3
f 39/90/4 40/89/4 36/91/4 35/92/4
f 37/93/6 41/94/6 39/95/6 35/96/6
f 42/97/1 38/98/1 36/99/1 40/100/1
l 8 7
