# Blender v2.92.0 OBJ File: 'Testhuman.blend'
# www.blender.org
mtllib human.mtl
o 立方体_立方体.001
v -1.650196 0.971902 1.198843
v -1.650195 11.971903 1.198843
v -1.650196 0.971902 -0.801158
v -1.650196 11.971903 -0.801158
v -0.250196 0.971902 1.198843
v -0.250195 11.971903 1.198843
v -0.250195 0.971902 -0.801158
v -0.250195 11.971903 -0.801157
v 0.560926 0.971903 1.198843
v 0.560926 11.971903 1.198843
v 0.560926 0.971903 -0.801158
v 0.560926 11.971903 -0.801157
v 1.960926 0.971903 1.198843
v 1.960926 11.971903 1.198843
v 1.960926 0.971903 -0.801158
v 1.960926 11.971903 -0.801158
v -1.868713 11.688265 1.155501
v -1.868713 17.688267 1.155500
v -1.868713 11.688265 -0.844500
v -1.868713 17.688267 -0.844500
v 2.131287 11.688265 1.155500
v 2.131287 17.688267 1.155500
v 2.131287 11.688265 -0.844500
v 2.131287 17.688267 -0.844500
v -2.803813 12.276190 1.155500
v 3.196187 12.276190 1.155500
v -2.803813 12.276190 -0.844500
v 3.196187 12.276190 -0.844500
v -2.803813 10.876190 1.155500
v 3.196187 10.876190 1.155500
v -2.803813 10.876190 -0.844500
v 3.196187 10.876190 -0.844500
v -4.447076 16.130205 0.763495
v -1.852167 17.635675 0.763495
v -4.447076 16.130205 -1.236506
v -1.852167 17.635677 -1.236506
v -3.744522 14.919245 0.763495
v -1.149613 16.424721 0.763495
v -3.744522 14.919245 -1.236506
v -1.149613 16.424719 -1.236506
v -6.954679 14.646515 0.763495
v -4.359768 16.151991 0.763495
v -6.954679 14.646515 -1.236505
v -4.359768 16.151991 -1.236506
v -6.252124 13.435560 0.763495
v -3.657214 14.941032 0.763495
v -6.252124 13.435560 -1.236505
v -3.657214 14.941032 -1.236506
v 4.792377 16.190432 0.763495
v 7.467113 14.831831 0.763495
v 4.792377 16.190432 -1.236506
v 7.467113 14.831831 -1.236505
v 4.158365 14.942219 0.763495
v 6.833101 13.583622 0.763495
v 4.158364 14.942219 -1.236506
v 6.833101 13.583622 -1.236505
v 2.183410 17.487616 0.763495
v 4.858147 16.129019 0.763495
v 2.183410 17.487616 -1.236506
v 4.858147 16.129019 -1.236506
v 1.549397 16.239405 0.763495
v 4.224134 14.880808 0.763495
v 1.549398 16.239405 -1.236506
v 4.224134 14.880808 -1.236506
v -1.003296 17.716156 0.973262
v -0.892990 19.654119 1.187709
v -1.056829 17.839039 -1.037186
v -0.999251 19.940445 -0.790234
v 0.996315 17.702230 0.958230
v 1.096935 19.553522 1.060885
v 0.972188 17.754995 -1.049121
v 0.993577 19.834846 -0.914817
vt 0.358065 0.861789
vt 0.238710 0.742434
vt 0.358065 0.742434
vt 0.477420 0.742434
vt 0.358065 0.623079
vt 0.477420 0.623079
vt 0.358065 0.742434
vt 0.238710 0.623079
vt 0.596775 0.854000
vt 0.477420 0.734645
vt 0.596775 0.734645
vt 0.781232 0.358065
vt 0.900585 0.238710
vt 0.900585 0.358065
vt 0.900585 0.119355
vt 0.781232 0.238710
vt 0.781232 0.119355
vt 0.835485 0.801383
vt 0.716130 0.682028
vt 0.835485 0.682028
vt 0.477419 0.861789
vt 0.358065 0.742434
vt 0.477419 0.742434
vt 0.716130 0.852128
vt 0.596775 0.732773
vt 0.716130 0.732773
vt 0.900587 0.119355
vt 0.781232 0.000000
vt 0.900587 0.000000
vt 0.781232 0.596775
vt 0.900585 0.477420
vt 0.900585 0.596775
vt 0.900585 0.358065
vt 0.781232 0.477420
vt 0.781232 0.358065
vt 0.000000 0.912001
vt 0.065103 0.792646
vt 0.065103 0.912001
vt 0.716130 0.341014
vt 0.781232 0.000000
vt 0.781232 0.341014
vt 0.835485 0.801383
vt 0.900587 0.682028
vt 0.900587 0.801383
vt 0.716130 0.682028
vt 0.781232 0.341014
vt 0.781232 0.682028
vt 0.358065 0.341008
vt 0.238710 0.000000
vt 0.358065 0.000000
vt 0.358065 0.000000
vt 0.477420 0.341008
vt 0.358065 0.341008
vt 0.119355 0.511512
vt 0.000000 0.000000
vt 0.119355 0.000000
vt 0.915776 0.119355
vt 0.930966 0.630876
vt 0.915776 0.630876
vt 0.238710 0.511512
vt 0.119355 0.000000
vt 0.238710 0.000000
vt 0.915776 0.630876
vt 0.900585 0.119355
vt 0.915776 0.119355
vt 0.145396 0.792646
vt 0.130205 0.912001
vt 0.130205 0.792646
vt 0.145396 0.912001
vt 0.160587 0.792646
vt 0.160587 0.912001
vt 0.119355 0.732830
vt 0.000000 0.511512
vt 0.119355 0.511512
vt 0.948481 0.341182
vt 0.930966 0.178120
vt 0.948481 0.119355
vt 0.238710 0.792646
vt 0.119355 0.571329
vt 0.238710 0.571329
vt 0.933290 0.852703
vt 0.950805 0.689641
vt 0.950805 0.911468
vt 0.238710 0.511512
vt 0.000000 0.732830
vt 0.119355 0.792646
vt 0.000000 0.792646
vt 0.716130 0.221317
vt 0.596775 0.000000
vt 0.716130 0.000000
vt 0.965995 0.341183
vt 0.948481 0.178121
vt 0.965995 0.119355
vt 0.716130 0.562269
vt 0.596775 0.340952
vt 0.716130 0.340952
vt 0.915776 0.852703
vt 0.933290 0.689641
vt 0.933290 0.911468
vt 0.596775 0.281135
vt 0.716130 0.281135
vt 0.596775 0.221317
vt 0.716130 0.281135
vt 0.596775 0.281135
vt 0.477420 0.623079
vt 0.358065 0.395139
vt 0.477420 0.395139
vt 0.982998 0.347861
vt 1.000000 0.172421
vt 1.000000 0.400928
vt 0.358065 0.568948
vt 0.238710 0.341008
vt 0.358065 0.341008
vt 0.984809 0.859383
vt 0.967807 0.683941
vt 0.984809 0.630876
vt 0.358065 0.623079
vt 0.238710 0.568948
vt 0.596775 0.282070
vt 0.477420 0.054131
vt 0.596775 0.054131
vt 0.967807 0.683942
vt 0.950805 0.859383
vt 0.950805 0.630876
vt 0.596775 0.510010
vt 0.477420 0.282071
vt 0.596775 0.282071
vt 0.965995 0.172421
vt 0.982998 0.347862
vt 0.965995 0.400928
vt 0.477420 0.000000
vt 0.596775 0.564141
vt 0.477420 0.510010
vt 0.108505 0.912001
vt 0.130205 0.792646
vt 0.130205 0.912001
vt 0.065103 0.963153
vt 0.086803 0.792646
vt 0.086803 0.963153
vt 0.086804 0.912001
vt 0.108505 0.792646
vt 0.108505 0.912001
vt 0.930966 0.570454
vt 0.952667 0.399947
vt 0.952667 0.570454
vt 0.596775 0.734645
vt 0.477420 0.564141
vt 0.596775 0.564141
vt 0.596775 0.562269
vt 0.716130 0.732773
vt 0.596775 0.732773
vt 0.238710 0.861788
vt 0.238710 0.742434
vt 0.477420 0.854000
vt 0.781232 0.238710
vt 0.900585 0.238710
vt 0.716130 0.801383
vt 0.358065 0.861788
vt 0.596775 0.852128
vt 0.781232 0.119355
vt 0.781232 0.477420
vt 0.900585 0.477420
vt 0.000000 0.792646
vt 0.716130 0.000000
vt 0.835485 0.682028
vt 0.716130 0.341014
vt 0.238710 0.341008
vt 0.477420 0.000000
vt 0.000000 0.511512
vt 0.930966 0.119355
vt 0.119355 0.511512
vt 0.900585 0.630876
vt 0.145396 0.912001
vt 0.145396 0.792646
vt 0.930966 0.399947
vt 0.933290 0.630876
vt 0.948481 0.399947
vt 0.596775 0.562269
vt 0.915776 0.630876
vt 0.982998 0.119355
vt 0.967807 0.912448
vt 0.477420 0.341008
vt 0.238710 0.623079
vt 0.477420 0.282070
vt 0.967807 0.912448
vt 0.982998 0.119355
vt 0.596775 0.000000
vt 0.477420 0.564141
vt 0.108505 0.792646
vt 0.065103 0.792646
vt 0.086804 0.792646
vt 0.930966 0.399947
vt 0.477420 0.734645
vt 0.716130 0.562269
vn -1.0000 0.0000 0.0000
vn 0.0000 0.0000 -1.0000
vn 1.0000 -0.0000 0.0000
vn 0.0000 -0.0000 1.0000
vn 0.0000 -1.0000 0.0000
vn 0.0000 1.0000 -0.0000
vn -0.5018 0.8650 0.0000
vn 0.5018 -0.8650 0.0000
vn -0.8650 -0.5018 0.0000
vn 0.8650 0.5018 -0.0000
vn 0.4529 0.8916 -0.0000
vn -0.4529 -0.8916 -0.0000
vn -0.8916 0.4529 0.0000
vn 0.8916 -0.4529 0.0000
vn -0.9981 0.0535 0.0298
vn -0.0010 0.1167 -0.9932
vn 0.9999 -0.0095 -0.0123
vn 0.0071 -0.0557 0.9984
vn -0.0417 -0.9973 -0.0598
vn 0.0610 0.9886 0.1376
vn -0.9982 0.0207 0.0566
vn -0.0588 0.0649 -0.9962
vn 0.9969 -0.0509 -0.0594
vn 0.0575 -0.1130 0.9919
vn -0.0072 -0.9996 -0.0262
vn 0.0589 0.9884 0.1399
usemtl マテリアル
s off
f 2/1/1 3/2/1 1/3/1
f 4/4/2 7/5/2 3/6/2
f 8/7/3 5/8/3 7/5/3
f 6/9/4 1/10/4 5/11/4
f 7/12/5 1/13/5 3/14/5
f 4/15/6 6/16/6 8/17/6
f 10/18/1 11/19/1 9/20/1
f 12/21/2 15/22/2 11/23/2
f 16/24/3 13/25/3 15/26/3
f 14/27/4 9/28/4 13/29/4
f 15/30/5 9/31/5 11/32/5
f 12/33/6 14/34/6 16/35/6
f 18/36/1 19/37/1 17/38/1
f 20/39/2 23/40/2 19/41/2
f 24/42/3 21/43/3 23/44/3
f 22/45/4 17/46/4 21/47/4
f 23/48/5 17/49/5 19/50/5
f 20/51/6 22/52/6 24/53/6
f 26/54/6 27/55/6 25/56/6
f 28/57/2 31/58/2 27/59/2
f 32/60/5 29/61/5 31/62/5
f 30/63/4 25/64/4 29/65/4
f 31/66/1 25/67/1 27/68/1
f 28/69/3 30/70/3 32/71/3
f 34/72/7 35/73/7 33/74/7
f 36/75/2 39/76/2 35/77/2
f 40/78/8 37/79/8 39/80/8
f 37/81/4 34/82/4 33/83/4
f 39/80/9 33/74/9 35/84/9
f 36/85/10 38/86/10 40/87/10
f 42/88/7 43/89/7 41/90/7
f 44/91/2 47/92/2 43/93/2
f 48/94/8 45/95/8 47/96/8
f 45/97/4 42/98/4 41/99/4
f 47/96/9 41/100/9 43/101/9
f 44/102/10 46/103/10 48/104/10
f 50/105/11 51/106/11 49/107/11
f 51/108/2 56/109/2 55/110/2
f 56/111/12 53/112/12 55/113/12
f 54/114/4 49/115/4 53/116/4
f 55/113/13 49/107/13 51/106/13
f 52/117/14 54/118/14 56/111/14
f 58/119/11 59/120/11 57/121/11
f 59/122/2 64/123/2 63/124/2
f 64/125/12 61/126/12 63/127/12
f 62/128/4 57/129/4 61/130/4
f 63/131/13 57/121/13 59/120/13
f 60/132/14 62/133/14 64/125/14
f 66/134/15 67/135/15 65/136/15
f 68/137/16 71/138/16 67/139/16
f 72/140/17 69/141/17 71/142/17
f 70/143/18 65/144/18 69/145/18
f 71/146/19 65/147/19 67/148/19
f 68/149/20 70/150/20 72/151/20
f 2/1/1 4/152/1 3/2/1
f 4/4/2 8/7/2 7/5/2
f 8/7/3 6/153/3 5/8/3
f 6/9/4 2/154/4 1/10/4
f 7/12/5 5/155/5 1/13/5
f 4/15/6 2/156/6 6/16/6
f 10/18/1 12/157/1 11/19/1
f 12/21/2 16/158/2 15/22/2
f 16/24/3 14/159/3 13/25/3
f 14/27/4 10/160/4 9/28/4
f 15/30/5 13/161/5 9/31/5
f 12/33/6 10/162/6 14/34/6
f 18/36/1 20/163/1 19/37/1
f 20/39/2 24/164/2 23/40/2
f 24/42/3 22/165/3 21/43/3
f 22/45/4 18/166/4 17/46/4
f 23/48/5 21/167/5 17/49/5
f 20/51/6 18/168/6 22/52/6
f 26/54/6 28/169/6 27/55/6
f 28/57/2 32/170/2 31/58/2
f 32/60/5 30/171/5 29/61/5
f 30/63/4 26/172/4 25/64/4
f 31/66/1 29/173/1 25/67/1
f 28/69/3 26/174/3 30/70/3
f 34/72/7 36/85/7 35/73/7
f 36/75/2 40/175/2 39/76/2
f 40/78/8 38/86/8 37/79/8
f 37/81/4 38/176/4 34/82/4
f 39/80/9 37/79/9 33/74/9
f 36/85/10 34/72/10 38/86/10
f 42/88/7 44/102/7 43/89/7
f 44/91/2 48/177/2 47/92/2
f 48/94/8 46/178/8 45/95/8
f 45/97/4 46/179/4 42/98/4
f 47/96/9 45/95/9 41/100/9
f 44/102/10 42/88/10 46/103/10
f 50/105/11 52/117/11 51/106/11
f 51/108/2 52/180/2 56/109/2
f 56/111/12 54/118/12 53/112/12
f 54/114/4 50/181/4 49/115/4
f 55/113/13 53/182/13 49/107/13
f 52/117/14 50/183/14 54/118/14
f 58/119/11 60/184/11 59/120/11
f 59/122/2 60/185/2 64/123/2
f 64/125/12 62/133/12 61/126/12
f 62/128/4 58/186/4 57/129/4
f 63/131/13 61/187/13 57/121/13
f 60/132/14 58/188/14 62/133/14
f 66/134/21 68/189/21 67/135/21
f 68/137/22 72/190/22 71/138/22
f 72/140/23 70/191/23 69/141/23
f 70/143/24 66/192/24 65/144/24
f 71/146/25 69/193/25 65/147/25
f 68/149/26 66/194/26 70/150/26
