# Blender v2.92.0 OBJ File: ''
# www.blender.org
mtllib body.mtl
o 立方体_立方体.002
v -0.800000 -0.662408 0.423371
v -0.800000 0.800000 0.626403
v -0.800000 0.800000 -0.320994
v 0.800000 -0.662408 0.423371
v 0.800000 0.800000 0.626403
v 0.800000 0.800000 -0.320994
v -0.391637 -0.236997 0.402483
v -0.391637 -0.236997 -0.320994
v 0.398929 -0.236997 -0.320994
v 0.398929 -0.236997 0.402483
v 0.000000 -0.557713 -0.320994
v 0.000000 0.690617 -0.546902
v 0.000000 -0.557713 0.402483
v 0.000000 0.690617 0.310376
v 0.003646 -0.236997 0.310376
v 0.003646 -0.236997 -0.320994
v -0.400092 -0.557713 -0.320994
v -0.400092 0.690617 0.310376
v -0.194041 -0.236997 0.402483
v -0.400092 0.690617 -0.320994
v -0.400092 -0.557713 0.402483
v -0.194041 -0.236997 -0.320994
v 0.393848 0.690617 -0.320994
v 0.393848 -0.557713 0.402483
v 0.198248 -0.236997 -0.320994
v 0.393848 -0.557713 -0.320994
v 0.393848 0.690617 0.310376
v 0.198248 -0.236997 0.402483
vt 0.953073 0.728626
vt 0.681699 0.458823
vt 0.953073 0.458823
vt 0.655299 0.676343
vt 0.431418 0.677573
vt 0.431418 0.628992
vt 0.686049 0.268432
vt 0.953600 0.004316
vt 0.953600 0.272748
vt 0.327533 0.290522
vt 0.102974 0.288475
vt 0.102974 0.240640
vt 0.061431 0.774689
vt 0.000000 0.676390
vt 0.271374 0.676390
vt 0.686049 0.115959
vt 0.589424 0.387333
vt 0.589424 0.115959
vt 0.025334 0.290522
vt 0.000000 0.387356
vt 0.271374 0.413655
vt 0.342043 0.387356
vt 0.342043 0.624716
vt 0.431418 0.534025
vt 0.354013 0.580999
vt 0.354013 0.484144
vt 0.102974 0.145674
vt 0.025334 0.193666
vt 0.025334 0.098323
vt 0.424664 0.115959
vt 0.506396 0.387333
vt 0.424664 0.387333
vt 0.271374 0.581046
vt 0.000000 0.484190
vt 0.271374 0.484190
vt 0.327533 0.193666
vt 0.102974 0.192784
vt 0.664307 0.580999
vt 0.431418 0.581882
vt 0.431418 0.486191
vt 0.655299 0.484144
vt 0.681699 0.387333
vt 0.891642 0.399223
vt 0.506396 0.000000
vt 0.102974 0.097093
vt 0.327533 0.098323
vt 0.354013 0.387333
vt 0.354013 0.115959
vt 0.000000 0.000023
vt 0.354013 0.676343
vt 0.000000 0.581046
vt 0.681699 0.728626
vt 0.681699 0.774666
vt 0.686049 0.000000
vt 0.354013 0.387333
vt 0.686049 0.387333
vt 0.681699 0.938569
vt 0.817959 0.728626
vt 0.817959 1.000000
vt 0.408786 0.774666
vt 0.475281 0.991938
vt 0.354013 0.991938
vt 0.681699 0.387333
vt 0.061431 0.387356
vt 0.354013 0.000000
vt 0.939335 0.971118
vt 0.817959 0.923046
vt 0.939335 0.728626
vn -0.9305 -0.3664 0.0000
vn 0.0000 0.0000 -1.0000
vn 0.9327 -0.3607 0.0000
vn 0.0000 0.0988 0.9951
vn -0.2496 -0.9683 0.0000
vn 0.2638 0.9646 0.0000
vn 0.0525 -0.0014 0.9986
vn 0.8769 -0.0139 -0.4804
vn 0.0000 0.0000 1.0000
vn 0.0000 1.0000 0.0000
vn 0.0000 -1.0000 0.0000
vn -0.4278 -0.0017 0.9039
vn 0.0000 -0.2366 -0.9716
vn -0.8820 0.0233 -0.4706
vn 0.4223 0.0017 0.9064
vn -0.2600 0.9656 0.0000
vn -0.0512 0.0008 0.9987
vn 0.6317 0.0823 0.7709
vn 0.7276 0.6860 0.0000
vn -0.7214 0.6925 0.0000
vn -0.4136 0.2557 0.8738
vn -0.4888 -0.1086 -0.8656
vn 0.2533 -0.9674 0.0000
vn 0.4092 0.2476 0.8782
vn -0.6247 0.0738 0.7774
vn 0.4948 -0.1043 -0.8627
usemtl マテリアル
s off
f 2/1/1 8/2/1 7/3/1
f 23/4/2 9/5/2 25/6/2
f 6/7/3 10/8/3 9/9/3
f 18/10/4 7/11/4 19/12/4
f 4/13/5 24/14/5 26/15/5
f 3/16/6 18/17/6 20/18/6
f 21/19/7 7/11/7 1/20/7
f 26/21/8 9/22/8 4/23/8
f 22/24/2 11/25/2 17/26/2
f 28/27/9 13/28/9 24/29/9
f 23/30/10 14/31/10 27/32/10
f 11/33/11 21/34/11 17/35/11
f 28/27/12 14/36/12 15/37/12
f 22/24/13 12/38/13 16/39/13
f 8/40/2 20/41/2 22/24/2
f 8/2/14 17/42/14 1/43/14
f 13/28/9 19/12/9 21/19/9
f 20/18/10 14/31/10 12/44/10
f 14/36/15 19/12/15 15/37/15
f 10/45/4 27/46/4 28/27/4
f 23/30/16 5/47/16 6/48/16
f 10/45/17 24/29/17 4/49/17
f 11/25/2 25/6/2 26/50/2
f 26/15/11 13/51/11 11/33/11
f 12/38/13 25/6/13 16/39/13
f 2/1/1 3/52/1 8/2/1
f 23/4/2 6/53/2 9/5/2
f 6/7/3 5/54/3 10/8/3
f 18/10/18 2/55/18 7/11/18
f 3/16/6 2/56/6 18/17/6
f 21/19/9 19/12/9 7/11/9
f 4/57/19 9/58/19 10/59/19
f 26/50/2 25/6/2 9/5/2
f 7/3/20 8/2/20 1/43/20
f 22/24/2 16/39/2 11/25/2
f 28/27/21 15/37/21 13/28/21
f 23/30/10 12/44/10 14/31/10
f 11/33/11 13/51/11 21/34/11
f 28/27/4 27/46/4 14/36/4
f 22/60/22 20/61/22 12/62/22
f 8/40/2 3/63/2 20/41/2
f 1/64/23 17/35/23 21/34/23
f 8/40/2 22/24/2 17/26/2
f 13/28/24 15/37/24 19/12/24
f 20/18/10 18/17/10 14/31/10
f 14/36/4 18/10/4 19/12/4
f 10/45/25 5/65/25 27/46/25
f 23/30/16 27/32/16 5/47/16
f 10/45/9 28/27/9 24/29/9
f 11/25/2 16/39/2 25/6/2
f 26/15/11 24/14/11 13/51/11
f 12/66/26 23/67/26 25/68/26
