# Blender v2.92.0 OBJ File: 'enemybody.blend'
# www.blender.org
mtllib body.mtl
o Cube
v 0.500000 0.500000 -0.500000
v 0.500000 -0.500000 -0.500000
v 0.500000 0.500000 0.500000
v 0.500000 -0.500000 0.500000
v -0.500000 0.500000 -0.500000
v -0.500000 -0.500000 -0.500000
v -0.500000 0.500000 0.500000
v -0.500000 -0.500000 0.500000
v -0.500000 -0.663995 0.735635
v -0.500000 -0.336005 0.735635
v -0.500000 -0.663995 0.500365
v -0.500000 -0.336005 0.500365
v 0.500000 -0.663995 0.735635
v 0.500000 -0.336005 0.735635
v 0.500000 -0.663995 0.500365
v 0.500000 -0.336005 0.500365
v -0.500000 -0.663995 -0.494165
v -0.500000 -0.336005 -0.494165
v -0.500000 -0.663995 -0.729435
v -0.500000 -0.336005 -0.729435
v 0.500000 -0.663995 -0.494165
v 0.500000 -0.336005 -0.494165
v 0.500000 -0.663995 -0.729435
v 0.500000 -0.336005 -0.729435
vt 0.352440 0.326172
vt 0.019107 0.659505
vt 0.019107 0.326172
vt 0.351789 0.663411
vt 0.018456 0.330078
vt 0.351789 0.330078
vt 0.351789 0.666667
vt 0.018456 0.333333
vt 0.351789 0.333333
vt 0.349185 0.333984
vt 0.015852 0.667318
vt 0.015852 0.333984
vt 0.351138 0.666667
vt 0.017805 0.333333
vt 0.351138 0.333333
vt 0.351789 0.664062
vt 0.018456 0.330729
vt 0.351789 0.330729
vt 0.834779 0.885327
vt 0.756356 0.775997
vt 0.834779 0.775997
vt 0.668575 0.395182
vt 0.777905 0.061849
vt 0.777905 0.395182
vt 0.834779 0.775997
vt 0.756356 0.666667
vt 0.834779 0.666667
vt 0.666667 0.395182
vt 0.775997 0.061849
vt 0.775997 0.395182
vt 0.599509 1.000000
vt 0.521086 0.666667
vt 0.599509 0.666667
vt 0.521086 1.000000
vt 0.442663 0.666667
vt 0.521086 0.666667
vt 0.913203 0.775996
vt 0.834779 0.666667
vt 0.913203 0.666667
vt 0.667318 0.400391
vt 0.776647 0.067057
vt 0.776647 0.400391
vt 0.913202 0.885326
vt 0.834779 0.775997
vt 0.913202 0.775997
vt 0.666577 0.393229
vt 0.775906 0.059896
vt 0.775906 0.393229
vt 0.521683 1.000000
vt 0.443260 0.666667
vt 0.521683 0.666667
vt 0.600106 1.000000
vt 0.521683 0.666667
vt 0.600106 0.666667
vt 0.352440 0.659505
vt 0.018456 0.663411
vt 0.018456 0.666667
vt 0.349185 0.667318
vt 0.017805 0.666667
vt 0.018456 0.664062
vt 0.756356 0.885327
vt 0.668575 0.061849
vt 0.756356 0.775997
vt 0.666667 0.061849
vt 0.521086 1.000000
vt 0.442663 1.000000
vt 0.834779 0.775996
vt 0.667318 0.067057
vt 0.834779 0.885326
vt 0.666577 0.059896
vt 0.443260 1.000000
vt 0.521683 1.000000
vn 0.0000 1.0000 0.0000
vn 0.0000 0.0000 1.0000
vn -1.0000 0.0000 0.0000
vn 0.0000 -1.0000 0.0000
vn 1.0000 0.0000 0.0000
vn 0.0000 0.0000 -1.0000
usemtl Material
s off
f 5/1/1 3/2/1 1/3/1
f 3/4/2 8/5/2 4/6/2
f 7/7/3 6/8/3 8/9/3
f 2/10/4 8/11/4 6/12/4
f 1/13/5 4/14/5 2/15/5
f 5/16/6 2/17/6 6/18/6
f 10/19/3 11/20/3 9/21/3
f 12/22/6 15/23/6 11/24/6
f 16/25/5 13/26/5 15/27/5
f 14/28/2 9/29/2 13/30/2
f 15/31/4 9/32/4 11/33/4
f 12/34/1 14/35/1 16/36/1
f 18/37/3 19/38/3 17/39/3
f 20/40/6 23/41/6 19/42/6
f 24/43/5 21/44/5 23/45/5
f 22/46/2 17/47/2 21/48/2
f 23/49/4 17/50/4 19/51/4
f 20/52/1 22/53/1 24/54/1
f 5/1/1 7/55/1 3/2/1
f 3/4/2 7/56/2 8/5/2
f 7/7/3 5/57/3 6/8/3
f 2/10/4 4/58/4 8/11/4
f 1/13/5 3/59/5 4/14/5
f 5/16/6 1/60/6 2/17/6
f 10/19/3 12/61/3 11/20/3
f 12/22/6 16/62/6 15/23/6
f 16/25/5 14/63/5 13/26/5
f 14/28/2 10/64/2 9/29/2
f 15/31/4 13/65/4 9/32/4
f 12/34/1 10/66/1 14/35/1
f 18/37/3 20/67/3 19/38/3
f 20/40/6 24/68/6 23/41/6
f 24/43/5 22/69/5 21/44/5
f 22/46/2 18/70/2 17/47/2
f 23/49/4 21/71/4 17/50/4
f 20/52/1 18/72/1 22/53/1
