# Blender v2.92.0 OBJ File: 'Head.blend'
# www.blender.org
mtllib Head.mtl
o Cube
v 1.000000 1.000000 -1.000000
v 1.000000 -1.000000 -1.000000
v 1.000000 1.000000 1.000000
v 1.000000 -1.000000 1.000000
v -1.000000 1.000000 -1.000000
v -1.000000 -1.000000 -1.000000
v -1.000000 1.000000 1.000000
v -1.000000 -1.000000 1.000000
v -0.300000 -2.676641 0.300000
v -0.300000 -0.676642 0.300000
v -0.300000 -2.676641 -0.300000
v -0.300000 -0.676642 -0.300000
v 0.300000 -2.676641 0.300000
v 0.300000 -0.676642 0.300000
v 0.300000 -2.676641 -0.300000
v 0.300000 -0.676642 -0.300000
vt 1.000000 0.000000
vt 0.666667 0.333333
vt 0.666667 0.000000
vt 0.333333 0.333333
vt 0.000000 0.000000
vt 0.333333 0.000000
vt 0.333333 0.666667
vt 0.000000 0.333333
vt 0.333333 0.333333
vt 0.666667 0.000000
vt 0.333333 0.000000
vt 0.666667 0.666667
vt 0.333333 0.333333
vt 0.666667 0.333333
vt 0.333333 1.000000
vt 0.000000 0.666667
vt 0.333333 0.666667
vt 0.766667 0.666667
vt 0.666667 0.333333
vt 0.766667 0.333333
vt 0.866667 0.666667
vt 0.766667 0.333333
vt 0.866667 0.333333
vt 0.966667 0.666667
vt 0.866667 0.333333
vt 0.966667 0.333333
vt 0.433333 1.000000
vt 0.333333 0.666667
vt 0.433333 0.666667
vt 0.633333 0.666667
vt 0.533333 0.766667
vt 0.533333 0.666667
vt 0.533333 0.666667
vt 0.433333 0.766667
vt 0.433333 0.666667
vt 1.000000 0.333333
vt 0.000000 0.333333
vt 0.000000 0.666667
vt 0.666667 0.333333
vt 0.333333 0.666667
vt 0.000000 1.000000
vt 0.666667 0.666667
vt 0.766667 0.666667
vt 0.866667 0.666667
vt 0.333333 1.000000
vt 0.633333 0.766667
vt 0.533333 0.766667
vn 0.0000 1.0000 0.0000
vn 0.0000 0.0000 1.0000
vn -1.0000 0.0000 0.0000
vn 0.0000 -1.0000 0.0000
vn 1.0000 0.0000 0.0000
vn 0.0000 0.0000 -1.0000
usemtl マテリアル
s off
f 5/1/1 3/2/1 1/3/1
f 3/4/2 8/5/2 4/6/2
f 7/7/3 6/8/3 8/9/3
f 2/10/4 8/9/4 6/11/4
f 1/12/5 4/13/5 2/14/5
f 5/15/6 2/16/6 6/17/6
f 10/18/3 11/19/3 9/20/3
f 12/21/6 15/22/6 11/23/6
f 16/24/5 13/25/5 15/26/5
f 14/27/2 9/28/2 13/29/2
f 15/30/4 9/31/4 11/32/4
f 12/33/1 14/34/1 16/35/1
f 5/1/1 7/36/1 3/2/1
f 3/4/2 7/37/2 8/5/2
f 7/7/3 5/38/3 6/8/3
f 2/10/4 4/39/4 8/9/4
f 1/12/5 3/40/5 4/13/5
f 5/15/6 1/41/6 2/16/6
f 10/18/3 12/42/3 11/19/3
f 12/21/6 16/43/6 15/22/6
f 16/24/5 14/44/5 13/25/5
f 14/27/2 10/45/2 9/28/2
f 15/30/4 13/46/4 9/31/4
f 12/33/1 10/47/1 14/34/1
