# Blender v2.92.0 OBJ File: 'armtst.blend'
# www.blender.org
mtllib BothArm.mtl
o 立方体
v -2.521152 -1.000000 1.000000
v -2.521152 1.000000 1.000000
v -2.521152 -1.000000 -1.000000
v -2.521152 1.000000 -1.000000
v 2.521152 -1.000000 1.000000
v 2.521152 1.000000 1.000000
v 2.521152 -1.000000 -1.000000
v 2.521152 1.000000 -1.000000
v -4.526198 -1.312445 -2.991364
v -4.526198 -3.312445 -2.991364
v -2.526198 -1.312445 -2.991364
v -2.526198 -3.312445 -2.991364
v -4.526198 -1.312445 1.008636
v -4.526198 -3.312445 1.008636
v -2.526198 -1.312445 1.008636
v -2.526198 -3.312445 1.008636
v -4.526198 -3.312445 -0.991364
v -2.526198 -1.312445 -0.991364
v -2.526198 -3.312445 -0.991364
v -4.526198 -1.312445 -0.991364
v -2.526198 0.974365 -0.991364
v -2.526198 0.974365 1.008636
v -4.526198 0.974365 1.008636
v -4.526198 0.974365 -0.991364
v 2.473802 -1.312445 -2.991364
v 2.473802 -3.312445 -2.991364
v 4.473802 -1.312445 -2.991364
v 4.473802 -3.312445 -2.991364
v 2.473802 -1.312445 1.008636
v 2.473802 -3.312445 1.008636
v 4.473803 -1.312445 1.008636
v 4.473803 -3.312445 1.008636
v 2.473802 -3.312445 -0.991364
v 4.473802 -1.312445 -0.991364
v 4.473802 -3.312445 -0.991364
v 2.473802 -1.312445 -0.991364
v 4.473802 0.974365 -0.991364
v 4.473803 0.974365 1.008636
v 2.473802 0.974365 1.008636
v 2.473802 0.974365 -0.991364
vt 0.666667 0.690568
vt 0.666667 0.857234
vt 0.500000 0.857234
vt 0.500000 0.690568
vt 0.833333 0.523901
vt 0.833333 0.690568
vt 0.666667 0.690568
vt 0.666667 0.523901
vt 0.833333 0.690568
vt 0.833333 0.857234
vt 0.666667 0.857234
vt 0.666667 0.690568
vt 0.666667 0.523901
vt 0.666667 0.690568
vt 0.500000 0.690568
vt 0.500000 0.523901
vt 0.500000 0.357234
vt 0.666667 0.357234
vt 0.666667 0.357234
vt 0.833333 0.357234
vt 0.833333 0.523901
vt 0.666667 0.523901
vt 0.833333 0.690568
vt 0.899441 0.690568
vt 0.899441 0.881135
vt 0.833333 0.881135
vt 0.166667 0.000000
vt 0.166667 0.166667
vt 0.000000 0.166667
vt 0.000000 0.000000
vt 0.500000 0.357234
vt 0.500000 0.523901
vt 0.433893 0.523901
vt 0.433893 0.357234
vt 0.899441 0.523901
vt 0.899441 0.690568
vt 0.833333 0.690568
vt 0.833333 0.523901
vt 0.264430 0.714468
vt 0.264430 0.881135
vt 0.198322 0.881135
vt 0.198322 0.714468
vt 0.833333 0.000000
vt 0.833333 0.166667
vt 0.666667 0.166667
vt 0.666667 0.000000
vt 1.000000 0.000000
vt 1.000000 0.166667
vt 0.899441 0.357234
vt 0.833333 0.357234
vt 0.333333 0.000000
vt 0.333333 0.166667
vt 0.264430 0.714468
vt 0.330537 0.714468
vt 0.330537 0.881135
vt 0.132215 0.714468
vt 0.132215 0.881135
vt 0.066107 0.881135
vt 0.066107 0.714468
vt 0.166667 0.357234
vt 0.000000 0.357234
vt 1.000000 0.357234
vt 0.833333 0.357234
vt 0.500000 0.714468
vt 0.433893 0.714468
vt 0.000000 0.714468
vt 0.066107 0.714468
vt 0.066107 0.905036
vt 0.000000 0.905036
vt 0.166667 0.357234
vt 0.166667 0.523901
vt 0.000000 0.523901
vt 0.000000 0.357234
vt 0.433893 0.357234
vt 0.433893 0.523901
vt 0.367785 0.523901
vt 0.367785 0.357234
vt 0.965548 0.523901
vt 0.965548 0.690568
vt 0.899441 0.690568
vt 0.899441 0.523901
vt 0.198322 0.714468
vt 0.198322 0.881135
vt 0.132215 0.881135
vt 0.132215 0.714468
vt 0.500000 0.000000
vt 0.500000 0.166667
vt 0.333333 0.166667
vt 0.333333 0.000000
vt 0.666667 0.000000
vt 0.666667 0.166667
vt 0.965548 0.357234
vt 0.899441 0.357234
vt 0.333333 0.357234
vt 0.333333 0.523901
vt 0.396644 0.881135
vt 0.396644 0.714468
vt 0.462752 0.714468
vt 0.462752 0.881135
vt 0.330537 0.881135
vt 0.330537 0.714468
vt 0.396644 0.714468
vt 0.396644 0.881135
vt 0.166667 0.714468
vt 0.000000 0.714468
vt 0.666667 0.357234
vt 0.500000 0.357234
vt 0.433893 0.714468
vt 0.367785 0.714468
vn -1.0000 0.0000 0.0000
vn 0.0000 0.0000 -1.0000
vn 1.0000 0.0000 0.0000
vn 0.0000 0.0000 1.0000
vn 0.0000 -1.0000 0.0000
vn 0.0000 1.0000 0.0000
usemtl マテリアル
s off
f 1/1/1 2/2/1 4/3/1 3/4/1
f 3/5/2 4/6/2 8/7/2 7/8/2
f 7/9/3 8/10/3 6/11/3 5/12/3
f 5/13/4 6/14/4 2/15/4 1/16/4
f 3/17/5 7/18/5 5/13/5 1/16/5
f 8/19/6 4/20/6 2/21/6 6/22/6
f 18/23/2 20/24/2 24/25/2 21/26/2
f 19/27/3 18/28/3 15/29/3 16/30/3
f 16/31/4 15/32/4 13/33/4 14/34/4
f 17/35/5 10/36/5 12/37/5 19/38/5
f 10/39/2 9/40/2 11/41/2 12/42/2
f 17/43/1 20/44/1 9/45/1 10/46/1
f 14/47/1 13/48/1 20/44/1 17/43/1
f 14/49/5 17/35/5 19/38/5 16/50/5
f 12/51/3 11/52/3 18/28/3 19/27/3
f 9/40/6 20/53/6 18/54/6 11/55/6
f 24/56/6 23/57/6 22/58/6 21/59/6
f 15/29/3 18/28/3 21/60/3 22/61/3
f 20/44/1 13/48/1 23/62/1 24/63/1
f 13/33/4 15/32/4 22/64/4 23/65/4
f 34/66/2 36/67/2 40/68/2 37/69/2
f 35/70/3 34/71/3 31/72/3 32/73/3
f 32/74/4 31/75/4 29/76/4 30/77/4
f 33/78/5 26/79/5 28/80/5 35/81/5
f 26/82/2 25/83/2 27/84/2 28/85/2
f 33/86/1 36/87/1 25/88/1 26/89/1
f 30/90/1 29/91/1 36/87/1 33/86/1
f 30/92/5 33/78/5 35/81/5 32/93/5
f 28/94/3 27/95/3 34/71/3 35/70/3
f 25/96/6 36/97/6 34/98/6 27/99/6
f 40/100/6 39/101/6 38/102/6 37/103/6
f 31/72/3 34/71/3 37/104/3 38/105/3
f 36/87/1 29/91/1 39/106/1 40/107/1
f 29/76/4 31/75/4 38/108/4 39/109/4
