# Blender v2.92.0 OBJ File: ''
# www.blender.org
mtllib ramieru.mtl
o 立方体
v 0.000000 0.532618 -0.049564
v -1.000000 2.079362 0.950436
v -1.000000 2.079362 -1.049564
v 1.000000 2.079362 0.950436
v 1.000000 2.079362 -1.049564
v 0.000000 3.474657 -0.049564
vt 0.375000 0.000000
vt 0.625000 0.000000
vt 0.625000 0.250000
vt 0.375000 0.250000
vt 0.625000 0.500000
vt 0.375000 0.500000
vt 0.625000 0.750000
vt 0.375000 0.750000
vt 0.625000 1.000000
vt 0.625000 1.000000
vt 0.625000 0.500000
vt 0.625000 0.750000
vt 0.625000 0.250000
vn -0.8398 -0.5429 0.0000
vn 0.0000 -0.5429 -0.8398
vn 0.8398 -0.5429 0.0000
vn 0.0000 -0.5429 0.8398
vn 0.0000 0.5825 0.8128
vn 0.0000 0.5825 -0.8128
vn 0.8128 0.5825 0.0000
vn -0.8128 0.5825 0.0000
usemtl マテリアル
s off
f 1/1/1 2/2/1 3/3/1
f 1/4/2 3/3/2 5/5/2
f 1/6/3 5/5/3 4/7/3
f 1/8/4 4/7/4 2/9/4
f 2/9/5 4/7/5 6/10/5
f 5/5/6 3/3/6 6/11/6
f 4/7/7 5/5/7 6/12/7
f 3/3/8 2/2/8 6/13/8
